<svg width="24.000000" height="24.000000" viewBox="0 0 24 24" fill="none" xmlns="http://www.w3.org/2000/svg" xmlns:xlink="http://www.w3.org/1999/xlink">
	<desc>
			Created with Pixso.
	</desc>
	<defs>
		<clipPath id="clip22_824">
			<rect width="24.000000" height="24.000000" fill="white" fill-opacity="0"/>
		</clipPath>
	</defs>
	<g clip-path="url(#clip22_824)">
		<path d="M16.82 23L9.17 23C7.42 23 6 21.41 6 19.45L6 7L20 7L20 19.45C19.99 21.41 18.57 23 16.82 23Z" fill="#FF5D50" fill-opacity="1.000000" fill-rule="nonzero"/>
		<path d="M20.1 4.6L16 4.6C15.8 3.13 14.53 2 13 2C11.46 2 10.2 3.13 10 4.6L5.89 4.6C5.4 4.6 5 5 5 5.49C5 5.98 5.4 6.38 5.89 6.38L20.1 6.38C20.59 6.38 21 5.98 21 5.49C21 5 20.59 4.6 20.1 4.6ZM11.03 17.5C10.54 17.5 10.14 17.1 10.14 16.6L10.14 10.48C10.14 9.98 10.54 9.59 11.03 9.59C11.53 9.59 11.93 9.98 11.93 10.48L11.93 16.6C11.93 17.1 11.53 17.5 11.03 17.5ZM14.87 17.5C14.38 17.5 13.98 17.1 13.98 16.6L13.98 10.48C13.98 9.98 14.38 9.59 14.87 9.59C15.37 9.59 15.77 9.98 15.77 10.48L15.77 16.6C15.77 17.1 15.37 17.5 14.87 17.5Z" fill="#FFDF99" fill-opacity="1.000000" fill-rule="nonzero"/>
	</g>
</svg>
