<svg width="24.000000" height="24.000000" viewBox="0 0 24 24" fill="none" xmlns="http://www.w3.org/2000/svg" xmlns:xlink="http://www.w3.org/1999/xlink">
	<desc>
			Created with Pixso.
	</desc>
	<defs>
		<clipPath id="clip22_812">
			<rect width="24.000000" height="24.000000" fill="white" fill-opacity="0"/>
		</clipPath>
	</defs>
	<g clip-path="url(#clip22_812)">
		<path d="M14.47 6.87L10.35 4.32C9.99 4.1 9.89 3.64 10.12 3.3L11.46 1.33C11.69 0.99 12.16 0.89 12.52 1.11L16.64 3.68C17 3.9 17.1 4.36 16.87 4.7L15.53 6.67C15.3 7.01 14.83 7.09 14.47 6.87Z" fill="#FFAA00" fill-opacity="1.000000" fill-rule="nonzero"/>
		<path d="M10.68 21.75C10.72 21.78 10.76 21.8 10.8 21.83C10.85 21.85 10.89 21.87 10.94 21.89C10.98 21.91 11.03 21.92 11.08 21.94C11.12 21.95 11.17 21.96 11.22 21.97C11.27 21.98 11.32 21.99 11.36 21.99C11.41 21.99 11.46 22 11.51 21.99C11.56 21.99 11.61 21.99 11.66 21.99C11.71 21.98 11.76 21.97 11.8 21.96C11.85 21.95 11.9 21.94 11.95 21.93C11.99 21.91 12.04 21.89 12.08 21.87C12.13 21.86 12.17 21.83 12.22 21.81C12.26 21.79 12.3 21.76 12.34 21.73C12.38 21.71 12.42 21.68 12.46 21.64C12.5 21.61 12.53 21.58 12.57 21.54C12.6 21.51 12.63 21.47 12.67 21.43C12.7 21.4 12.72 21.36 12.75 21.31C12.78 21.27 12.8 21.23 12.83 21.19C12.85 21.14 12.87 21.1 12.89 21.05C12.91 21.01 12.92 20.96 12.94 20.91C12.95 20.87 12.96 20.82 12.97 20.77C12.98 20.72 12.99 20.67 12.99 20.63C12.99 20.58 13 20.53 13 20.48C12.99 20.43 12.99 20.38 12.99 20.33C12.98 20.28 12.97 20.23 12.96 20.19C12.95 20.14 12.94 20.09 12.93 20.04C12.91 20 12.89 19.95 12.87 19.91C12.85 19.86 12.83 19.82 12.81 19.77C12.79 19.73 12.76 19.69 12.73 19.65C12.71 19.61 12.68 19.57 12.64 19.53C12.61 19.49 12.58 19.46 12.54 19.42C12.51 19.39 12.47 19.36 12.43 19.33C12.4 19.29 12.36 19.27 12.31 19.24C12.27 19.21 12.23 19.19 12.19 19.16C12.14 19.14 12.1 19.12 12.05 19.1C12.01 19.08 11.96 19.07 11.91 19.06C11.87 19.04 11.82 19.03 11.77 19.02C11.72 19.01 11.67 19.01 11.63 19C11.58 19 11.53 18.99 11.48 19C11.43 19 11.38 19 11.33 19C11.28 19.01 11.23 19.02 11.19 19.03C11.14 19.04 11.09 19.05 11.04 19.06C11 19.08 10.95 19.1 10.91 19.12C10.86 19.13 10.82 19.16 10.77 19.18C10.73 19.2 10.69 19.23 10.65 19.26C10.61 19.28 10.57 19.31 10.53 19.35C10.49 19.38 10.46 19.41 10.42 19.45C10.39 19.48 10.36 19.52 10.32 19.56C10.29 19.59 10.27 19.63 10.24 19.68C10.21 19.72 10.19 19.76 10.16 19.8C10.14 19.85 10.12 19.89 10.1 19.94C10.08 19.98 10.07 20.03 10.05 20.08C10.04 20.12 10.03 20.17 10.02 20.22C10.01 20.27 10.01 20.32 10 20.36C10 20.41 9.99 20.46 10 20.51C10 20.56 10 20.61 10 20.66C10.01 20.71 10.02 20.76 10.03 20.8C10.04 20.85 10.05 20.9 10.06 20.95C10.08 20.99 10.1 21.04 10.12 21.08C10.14 21.13 10.16 21.17 10.18 21.22C10.2 21.26 10.23 21.3 10.26 21.34C10.29 21.38 10.31 21.42 10.35 21.46C10.38 21.5 10.41 21.53 10.45 21.57C10.48 21.6 10.52 21.63 10.56 21.66C10.59 21.7 10.63 21.72 10.68 21.75Z" fill="#FFAA00" fill-opacity="1.000000" fill-rule="nonzero"/>
		<path d="M15.68 21.75C15.72 21.78 15.76 21.8 15.8 21.83C15.85 21.85 15.89 21.87 15.94 21.89C15.98 21.91 16.03 21.92 16.08 21.93C16.12 21.95 16.17 21.96 16.22 21.97C16.27 21.98 16.32 21.99 16.36 21.99C16.41 21.99 16.46 22 16.51 21.99C16.56 21.99 16.61 21.99 16.66 21.99C16.71 21.98 16.76 21.97 16.8 21.96C16.85 21.95 16.9 21.94 16.95 21.93C16.99 21.91 17.04 21.89 17.08 21.87C17.13 21.86 17.17 21.83 17.22 21.81C17.26 21.79 17.3 21.76 17.34 21.73C17.38 21.71 17.42 21.68 17.46 21.64C17.5 21.61 17.53 21.58 17.57 21.54C17.6 21.51 17.63 21.47 17.67 21.43C17.7 21.4 17.72 21.36 17.75 21.31C17.78 21.27 17.8 21.23 17.83 21.19C17.85 21.14 17.87 21.1 17.89 21.05C17.91 21.01 17.92 20.96 17.94 20.91C17.95 20.87 17.96 20.82 17.97 20.77C17.98 20.72 17.99 20.67 17.99 20.63C17.99 20.58 18 20.53 18 20.48C17.99 20.43 17.99 20.38 17.99 20.33C17.98 20.28 17.97 20.23 17.96 20.19C17.95 20.14 17.94 20.09 17.93 20.04C17.91 20 17.89 19.95 17.87 19.91C17.85 19.86 17.83 19.82 17.81 19.77C17.79 19.73 17.76 19.69 17.73 19.65C17.7 19.61 17.68 19.57 17.64 19.53C17.61 19.49 17.58 19.46 17.54 19.42C17.51 19.39 17.47 19.36 17.43 19.33C17.39 19.29 17.36 19.27 17.31 19.24C17.27 19.21 17.23 19.19 17.19 19.16C17.14 19.14 17.1 19.12 17.05 19.1C17.01 19.08 16.96 19.07 16.91 19.06C16.87 19.04 16.82 19.03 16.77 19.02C16.72 19.01 16.67 19.01 16.63 19C16.58 19 16.53 18.99 16.48 19C16.43 19 16.38 19 16.33 19C16.28 19.01 16.23 19.02 16.19 19.03C16.14 19.04 16.09 19.05 16.04 19.06C16 19.08 15.95 19.1 15.91 19.12C15.86 19.13 15.82 19.16 15.77 19.18C15.73 19.2 15.69 19.23 15.65 19.26C15.61 19.28 15.57 19.31 15.53 19.35C15.49 19.38 15.46 19.41 15.42 19.45C15.39 19.48 15.36 19.52 15.32 19.56C15.29 19.59 15.27 19.63 15.24 19.68C15.21 19.72 15.19 19.76 15.16 19.8C15.14 19.85 15.12 19.89 15.1 19.94C15.08 19.98 15.07 20.03 15.05 20.08C15.04 20.12 15.03 20.17 15.02 20.22C15.01 20.27 15.01 20.32 15 20.36C15 20.41 14.99 20.46 15 20.51C15 20.56 15 20.61 15 20.66C15.01 20.71 15.02 20.76 15.03 20.8C15.04 20.85 15.05 20.9 15.06 20.95C15.08 20.99 15.1 21.04 15.12 21.08C15.14 21.13 15.16 21.17 15.18 21.22C15.2 21.26 15.23 21.3 15.26 21.34C15.29 21.38 15.31 21.42 15.35 21.46C15.38 21.5 15.41 21.53 15.45 21.57C15.48 21.6 15.52 21.63 15.56 21.66C15.6 21.7 15.63 21.72 15.68 21.75Z" fill="#FFAA00" fill-opacity="1.000000" fill-rule="nonzero"/>
		<path d="M19.68 21.75C19.72 21.78 19.76 21.8 19.8 21.83C19.85 21.85 19.89 21.87 19.94 21.89C19.98 21.91 20.03 21.92 20.08 21.93C20.12 21.95 20.17 21.96 20.22 21.97C20.27 21.98 20.32 21.99 20.36 21.99C20.41 21.99 20.46 22 20.51 21.99C20.56 21.99 20.61 21.99 20.66 21.99C20.71 21.98 20.76 21.97 20.8 21.96C20.85 21.95 20.9 21.94 20.95 21.93C20.99 21.91 21.04 21.89 21.08 21.87C21.13 21.86 21.17 21.83 21.22 21.81C21.26 21.79 21.3 21.76 21.34 21.73C21.38 21.71 21.42 21.68 21.46 21.64C21.5 21.61 21.53 21.58 21.57 21.54C21.6 21.51 21.63 21.47 21.67 21.43C21.7 21.4 21.72 21.36 21.75 21.31C21.78 21.27 21.8 21.23 21.83 21.19C21.85 21.14 21.87 21.1 21.89 21.05C21.91 21.01 21.92 20.96 21.94 20.91C21.95 20.87 21.96 20.82 21.97 20.77C21.98 20.72 21.99 20.67 21.99 20.63C21.99 20.58 22 20.53 22 20.48C21.99 20.43 21.99 20.38 21.99 20.33C21.98 20.28 21.97 20.23 21.96 20.19C21.95 20.14 21.94 20.09 21.93 20.04C21.91 20 21.89 19.95 21.87 19.91C21.85 19.86 21.83 19.82 21.81 19.77C21.79 19.73 21.76 19.69 21.73 19.65C21.7 19.61 21.68 19.57 21.64 19.53C21.61 19.49 21.58 19.46 21.54 19.42C21.51 19.39 21.47 19.36 21.43 19.33C21.39 19.29 21.36 19.27 21.31 19.24C21.27 19.21 21.23 19.19 21.19 19.16C21.14 19.14 21.1 19.12 21.05 19.1C21.01 19.08 20.96 19.07 20.91 19.06C20.87 19.04 20.82 19.03 20.77 19.02C20.72 19.01 20.67 19.01 20.63 19C20.58 19 20.53 18.99 20.48 19C20.43 19 20.38 19 20.33 19C20.28 19.01 20.23 19.02 20.19 19.03C20.14 19.04 20.09 19.05 20.04 19.06C20 19.08 19.95 19.1 19.91 19.12C19.86 19.13 19.82 19.16 19.77 19.18C19.73 19.2 19.69 19.23 19.65 19.26C19.61 19.28 19.57 19.31 19.53 19.35C19.49 19.38 19.46 19.41 19.42 19.45C19.39 19.48 19.36 19.52 19.32 19.56C19.29 19.59 19.27 19.63 19.24 19.68C19.21 19.72 19.19 19.76 19.16 19.8C19.14 19.85 19.12 19.89 19.1 19.94C19.08 19.98 19.07 20.03 19.05 20.08C19.04 20.12 19.03 20.17 19.02 20.22C19.01 20.27 19.01 20.32 19 20.36C19 20.41 18.99 20.46 19 20.51C19 20.56 19 20.61 19 20.66C19.01 20.71 19.02 20.76 19.03 20.8C19.04 20.85 19.05 20.9 19.06 20.95C19.08 20.99 19.1 21.04 19.12 21.08C19.14 21.13 19.16 21.17 19.18 21.22C19.2 21.26 19.23 21.3 19.26 21.34C19.29 21.38 19.31 21.42 19.35 21.46C19.38 21.5 19.41 21.53 19.45 21.57C19.48 21.6 19.52 21.63 19.56 21.66C19.6 21.7 19.63 21.72 19.68 21.75Z" fill="#FFAA00" fill-opacity="1.000000" fill-rule="nonzero"/>
		<path d="M13.66 8.86L9.72 6.15C9.3 5.86 8.74 5.99 8.47 6.42L2.03 16.91C1.85 17.2 2.42 21.78 2.71 21.98C2.98 22.17 7.17 20.89 7.35 20.6L13.88 9.98C14.09 9.6 14 9.1 13.66 8.86ZM9.69 8.86L5.23 16.11C5.05 16.4 4.68 16.49 4.4 16.3C4.13 16.11 4.04 15.71 4.22 15.42L8.68 8.17C8.86 7.88 9.24 7.79 9.51 7.98C9.79 8.17 9.88 8.57 9.69 8.86Z" fill="#FFAA00" fill-opacity="1.000000" fill-rule="nonzero"/>
	</g>
</svg>
