<svg width="16.000000" height="16.000000" viewBox="0 0 16 16" fill="none" xmlns="http://www.w3.org/2000/svg" xmlns:xlink="http://www.w3.org/1999/xlink">
	<desc>
			Created with Pixso.
	</desc>
	<defs>
		<clipPath id="clip42_1324">
			<rect width="16.000000" height="16.000000" fill="white" fill-opacity="0"/>
		</clipPath>
	</defs>
	<g clip-path="url(#clip42_1324)">
		<path d="M10.46 0.63C10.33 0.59 10.21 0.56 10.09 0.53C9.96 0.49 9.84 0.46 9.71 0.44C9.58 0.41 9.46 0.39 9.33 0.37C9.2 0.35 9.08 0.33 8.95 0.32C8.82 0.31 8.69 0.3 8.56 0.29C8.43 0.28 8.31 0.28 8.18 0.28C8.05 0.28 7.92 0.28 7.79 0.28C7.66 0.29 7.53 0.3 7.41 0.31C7.28 0.32 7.15 0.34 7.02 0.35C6.9 0.37 6.77 0.39 6.64 0.42C6.52 0.44 6.39 0.47 6.27 0.5C6.14 0.53 6.02 0.56 5.89 0.6C5.77 0.64 5.65 0.68 5.53 0.72C5.4 0.76 5.28 0.81 5.17 0.86C5.05 0.9 4.93 0.96 4.81 1.01C4.69 1.06 4.58 1.12 4.47 1.18C4.35 1.24 4.24 1.3 4.13 1.37C4.02 1.43 3.91 1.5 3.8 1.57C3.69 1.64 3.59 1.72 3.48 1.79C3.38 1.87 3.28 1.95 3.18 2.03C3.08 2.11 2.98 2.19 2.89 2.28C2.79 2.36 2.7 2.45 2.6 2.54C2.51 2.63 2.42 2.73 2.34 2.82C2.25 2.91 2.16 3.01 2.08 3.11C2 3.21 1.92 3.31 1.84 3.41C1.77 3.52 1.69 3.62 1.62 3.73C1.55 3.83 1.48 3.94 1.41 4.05C1.34 4.16 1.28 4.27 1.22 4.39C1.16 4.5 1.1 4.61 1.04 4.73C0.99 4.85 0.93 4.96 0.88 5.08C0.83 5.2 0.79 5.32 0.74 5.44C0.7 5.56 0.66 5.68 0.62 5.81C0.58 5.93 0.55 6.05 0.51 6.18C0.48 6.3 0.45 6.43 0.43 6.55C0.4 6.68 0.38 6.81 0.36 6.93C0.34 7.06 0.32 7.19 0.31 7.32C0.3 7.44 0.28 7.57 0.28 7.7C0.27 7.83 0.27 7.96 0.27 8.09C0.27 8.21 0.27 8.34 0.27 8.47C0.28 8.6 0.29 8.73 0.3 8.86C0.31 8.98 0.33 9.11 0.34 9.24C0.36 9.37 0.38 9.49 0.41 9.62C0.43 9.75 0.46 9.87 0.49 10C0.52 10.12 0.55 10.25 0.59 10.37C0.63 10.49 0.67 10.62 0.71 10.74C0.75 10.86 0.8 10.98 0.85 11.1C0.89 11.22 0.95 11.33 1 11.45C1.05 11.57 1.11 11.68 1.17 11.8C1.23 11.91 1.29 12.02 1.36 12.13C1.42 12.24 1.49 12.35 1.56 12.46C1.63 12.57 1.71 12.67 1.78 12.78C1.86 12.88 1.94 12.98 2.02 13.08C2.1 13.18 2.18 13.28 2.27 13.38C2.36 13.47 2.44 13.57 2.53 13.66C2.62 13.75 2.72 13.84 2.81 13.93C2.91 14.01 3 14.1 3.1 14.18C3.2 14.26 3.3 14.34 3.41 14.42C3.51 14.5 3.61 14.57 3.72 14.64C3.83 14.72 3.93 14.78 4.04 14.85C4.15 14.92 4.27 14.98 4.38 15.04C4.49 15.1 4.61 15.16 4.72 15.22C4.84 15.27 4.96 15.33 5.07 15.38C5.19 15.43 5.31 15.47 5.43 15.52C5.55 15.56 5.68 15.6 5.8 15.64C5.92 15.68 6.05 15.71 6.17 15.75C6.29 15.78 6.42 15.81 6.55 15.83C6.67 15.86 6.8 15.88 6.93 15.9C7.05 15.92 7.18 15.94 7.31 15.95C7.44 15.96 7.56 15.97 7.69 15.98C7.82 15.99 7.95 15.99 8.08 15.99C8.21 15.99 8.34 15.99 8.46 15.99C8.59 15.98 8.72 15.97 8.85 15.96C8.98 15.95 9.1 15.93 9.23 15.91C9.36 15.9 9.49 15.88 9.61 15.85C9.74 15.83 9.86 15.8 9.99 15.77C10.11 15.74 10.24 15.7 10.36 15.67C10.49 15.63 10.61 15.59 10.73 15.55C10.85 15.51 10.97 15.46 11.09 15.41C11.21 15.36 11.33 15.31 11.44 15.26C11.56 15.2 11.68 15.15 11.79 15.09C11.9 15.03 12.02 14.96 12.13 14.9C12.24 14.83 12.35 14.76 12.45 14.69C12.56 14.62 12.67 14.55 12.77 14.47C12.87 14.4 12.98 14.32 13.08 14.24C13.18 14.16 13.27 14.07 13.37 13.99C13.46 13.9 13.56 13.81 13.65 13.72C13.74 13.63 13.83 13.54 13.92 13.44C14 13.35 14.09 13.25 14.17 13.15C14.25 13.05 14.33 12.95 14.41 12.85C14.49 12.75 14.56 12.64 14.63 12.54C14.71 12.43 14.78 12.32 14.84 12.21C14.91 12.1 14.97 11.99 15.03 11.88C15.1 11.76 15.15 11.65 15.21 11.53C15.26 11.42 15.32 11.3 15.37 11.18C15.42 11.06 15.46 10.94 15.51 10.82C15.55 10.7 15.59 10.58 15.63 10.46C15.67 10.33 15.7 10.21 15.74 10.09C15.77 9.96 15.8 9.84 15.82 9.71C15.85 9.58 15.87 9.46 15.89 9.33C15.91 9.2 15.93 9.08 15.94 8.95C15.95 8.82 15.96 8.69 15.97 8.56C15.98 8.44 15.98 8.31 15.98 8.18C15.98 8.05 15.98 7.92 15.97 7.79C15.97 7.67 15.96 7.54 15.95 7.41C15.94 7.28 15.92 7.15 15.9 7.03C15.89 6.9 15.86 6.77 15.84 6.65C15.82 6.52 15.79 6.4 15.76 6.27C15.73 6.15 15.69 6.02 15.66 5.9C15.62 5.78 15.58 5.65 15.54 5.53C15.5 5.41 15.45 5.29 15.4 5.17C15.35 5.05 15.3 4.94 15.25 4.82C15.19 4.7 15.14 4.59 15.08 4.47C15.02 4.36 14.95 4.25 14.89 4.14C14.82 4.03 14.76 3.92 14.68 3.81C14.61 3.7 14.54 3.6 14.47 3.49C14.39 3.39 14.31 3.29 14.23 3.19C14.15 3.09 14.07 2.99 13.98 2.9C13.89 2.8 13.81 2.71 13.72 2.61C13.63 2.52 13.53 2.43 13.44 2.35C13.34 2.26 13.25 2.18 13.15 2.09C13.05 2.01 12.95 1.93 12.85 1.85C12.74 1.78 12.64 1.7 12.53 1.63C12.43 1.56 12.32 1.49 12.21 1.42C12.1 1.36 11.99 1.29 11.87 1.23C11.76 1.17 11.65 1.11 11.53 1.05C11.42 1 11.3 0.95 11.18 0.9C11.06 0.85 10.94 0.8 10.82 0.75C10.7 0.71 10.58 0.67 10.46 0.63ZM13.93 8.36L12.64 9.65C12.62 9.67 12.59 9.69 12.57 9.71C12.54 9.73 12.51 9.74 12.48 9.76C12.45 9.77 12.42 9.78 12.39 9.78C12.35 9.79 12.32 9.79 12.29 9.79C12.26 9.79 12.22 9.79 12.19 9.78C12.16 9.78 12.13 9.77 12.1 9.76C12.07 9.74 12.04 9.73 12.01 9.71C11.99 9.69 11.96 9.67 11.94 9.65L10.64 8.36C10.62 8.34 10.6 8.31 10.58 8.28C10.56 8.26 10.54 8.23 10.53 8.2C10.52 8.17 10.51 8.13 10.5 8.1C10.49 8.07 10.49 8.04 10.49 8C10.49 7.97 10.49 7.94 10.5 7.9C10.5 7.87 10.51 7.84 10.52 7.81C10.54 7.78 10.55 7.75 10.57 7.72C10.59 7.69 10.61 7.67 10.63 7.64C10.65 7.62 10.68 7.6 10.71 7.58C10.73 7.56 10.76 7.54 10.79 7.53C10.82 7.52 10.86 7.51 10.89 7.5C10.92 7.49 10.95 7.49 10.99 7.49C11.02 7.49 11.05 7.49 11.09 7.5C11.12 7.5 11.15 7.51 11.18 7.52C11.21 7.54 11.24 7.55 11.27 7.57C11.3 7.59 11.32 7.61 11.35 7.63L11.9 8.18C11.9 8.06 11.89 7.94 11.88 7.82C11.87 7.69 11.85 7.57 11.83 7.45C11.8 7.34 11.77 7.22 11.74 7.1C11.7 6.98 11.66 6.87 11.61 6.76C11.57 6.64 11.52 6.53 11.46 6.43C11.4 6.32 11.34 6.22 11.27 6.11C11.2 6.01 11.13 5.91 11.05 5.82C10.98 5.73 10.89 5.64 10.81 5.55C10.72 5.46 10.63 5.38 10.54 5.3C10.44 5.23 10.34 5.16 10.24 5.09C10.14 5.02 10.04 4.96 9.93 4.9C9.82 4.84 9.71 4.79 9.6 4.74C9.49 4.7 9.37 4.66 9.26 4.62C9.14 4.59 9.02 4.56 8.9 4.53C8.78 4.51 8.66 4.49 8.54 4.48C8.42 4.47 8.3 4.46 8.18 4.46C8.05 4.46 7.93 4.47 7.81 4.48C7.69 4.49 7.57 4.51 7.45 4.53C7.33 4.56 7.21 4.59 7.1 4.62C6.98 4.66 6.87 4.7 6.75 4.74C6.64 4.79 6.53 4.84 6.42 4.9C6.32 4.96 6.21 5.02 6.11 5.09C6.01 5.16 5.91 5.23 5.82 5.3C5.72 5.38 5.63 5.46 5.55 5.55C5.46 5.64 5.38 5.73 5.3 5.82C5.22 5.91 5.15 6.01 5.08 6.11C5.02 6.22 4.95 6.32 4.9 6.43C4.84 6.53 4.79 6.64 4.74 6.76C4.69 6.87 4.65 6.98 4.62 7.1C4.58 7.22 4.55 7.34 4.53 7.45C4.5 7.57 4.49 7.69 4.47 7.82C4.46 7.94 4.46 8.06 4.46 8.18C4.46 8.3 4.46 8.42 4.47 8.55C4.49 8.67 4.5 8.79 4.53 8.91C4.55 9.03 4.58 9.14 4.62 9.26C4.65 9.38 4.69 9.49 4.74 9.6C4.79 9.72 4.84 9.83 4.9 9.93C4.95 10.04 5.02 10.15 5.08 10.25C5.15 10.35 5.22 10.45 5.3 10.54C5.38 10.63 5.46 10.72 5.55 10.81C5.63 10.9 5.72 10.98 5.82 11.06C5.91 11.13 6.01 11.21 6.11 11.27C6.21 11.34 6.32 11.4 6.42 11.46C6.53 11.52 6.64 11.57 6.75 11.62C6.87 11.66 6.98 11.71 7.1 11.74C7.21 11.78 7.33 11.81 7.45 11.83C7.57 11.85 7.69 11.87 7.81 11.88C7.93 11.89 8.05 11.9 8.18 11.9L8.47 11.9C8.51 11.9 8.54 11.9 8.57 11.9C8.61 11.91 8.64 11.91 8.67 11.92C8.7 11.93 8.73 11.95 8.76 11.96C8.79 11.98 8.81 12 8.84 12.02C8.86 12.04 8.89 12.06 8.91 12.09C8.93 12.12 8.94 12.14 8.96 12.17C8.97 12.2 8.99 12.23 8.99 12.26C9 12.29 9.01 12.33 9.01 12.36C9.02 12.39 9.01 12.42 9.01 12.46C9.01 12.49 9 12.52 8.99 12.55C8.98 12.58 8.97 12.61 8.95 12.64C8.93 12.67 8.92 12.7 8.89 12.72C8.87 12.75 8.85 12.77 8.82 12.79C8.8 12.81 8.77 12.83 8.74 12.84C8.71 12.86 8.68 12.87 8.65 12.88C8.62 12.89 8.59 12.89 8.55 12.89L8.18 12.89C8.1 12.89 8.02 12.89 7.95 12.89C7.87 12.89 7.79 12.88 7.72 12.87C7.64 12.87 7.56 12.86 7.49 12.85C7.41 12.83 7.34 12.82 7.26 12.81C7.19 12.79 7.11 12.78 7.04 12.76C6.96 12.74 6.89 12.72 6.81 12.7C6.74 12.68 6.67 12.65 6.59 12.63C6.52 12.6 6.45 12.57 6.38 12.55C6.31 12.52 6.24 12.49 6.17 12.45C6.1 12.42 6.03 12.39 5.96 12.35C5.89 12.32 5.83 12.28 5.76 12.24C5.69 12.2 5.63 12.16 5.56 12.12C5.5 12.08 5.44 12.03 5.37 11.99C5.31 11.94 5.25 11.89 5.19 11.85C5.13 11.8 5.07 11.75 5.02 11.7C4.96 11.65 4.9 11.59 4.85 11.54C4.79 11.49 4.74 11.43 4.69 11.37C4.63 11.32 4.58 11.26 4.53 11.2C4.48 11.14 4.44 11.08 4.39 11.02C4.34 10.96 4.3 10.9 4.26 10.83C4.21 10.77 4.17 10.71 4.13 10.64C4.09 10.58 4.05 10.51 4.01 10.44C3.98 10.37 3.94 10.31 3.91 10.24C3.87 10.17 3.84 10.1 3.81 10.03C3.78 9.96 3.75 9.89 3.73 9.81C3.7 9.74 3.68 9.67 3.65 9.6C3.63 9.52 3.61 9.45 3.59 9.37C3.57 9.3 3.55 9.23 3.53 9.15C3.52 9.07 3.5 9 3.49 8.92C3.48 8.85 3.47 8.77 3.46 8.7C3.45 8.62 3.45 8.54 3.44 8.47C3.44 8.39 3.43 8.31 3.43 8.24C3.43 8.16 3.43 8.08 3.43 8.01C3.44 7.93 3.44 7.85 3.45 7.77C3.45 7.7 3.46 7.62 3.47 7.55C3.48 7.47 3.49 7.39 3.51 7.32C3.52 7.24 3.54 7.17 3.55 7.09C3.57 7.02 3.59 6.94 3.61 6.87C3.63 6.8 3.66 6.72 3.68 6.65C3.71 6.58 3.73 6.5 3.76 6.43C3.79 6.36 3.82 6.29 3.85 6.22C3.88 6.15 3.91 6.08 3.95 6.01C3.98 5.94 4.02 5.88 4.06 5.81C4.1 5.74 4.14 5.68 4.18 5.61C4.22 5.55 4.26 5.49 4.31 5.42C4.35 5.36 4.4 5.3 4.45 5.24C4.49 5.18 4.54 5.12 4.59 5.06C4.64 5 4.7 4.95 4.75 4.89C4.8 4.84 4.86 4.78 4.91 4.73C4.97 4.68 5.03 4.62 5.08 4.57C5.14 4.52 5.2 4.48 5.26 4.43C5.32 4.38 5.39 4.34 5.45 4.29C5.51 4.25 5.58 4.21 5.64 4.17C5.71 4.12 5.77 4.08 5.84 4.05C5.91 4.01 5.97 3.97 6.04 3.94C6.11 3.9 6.18 3.87 6.25 3.84C6.32 3.81 6.39 3.78 6.46 3.75C6.53 3.73 6.61 3.7 6.68 3.68C6.75 3.65 6.83 3.63 6.9 3.61C6.97 3.59 7.05 3.57 7.12 3.55C7.2 3.54 7.27 3.52 7.35 3.51C7.43 3.5 7.5 3.48 7.58 3.47C7.65 3.46 7.73 3.46 7.81 3.45C7.88 3.45 7.96 3.44 8.04 3.44C8.11 3.44 8.19 3.44 8.27 3.44C8.35 3.44 8.42 3.45 8.5 3.45C8.58 3.46 8.65 3.46 8.73 3.47C8.8 3.48 8.88 3.49 8.96 3.51C9.03 3.52 9.11 3.53 9.18 3.55C9.26 3.57 9.33 3.59 9.41 3.61C9.48 3.63 9.55 3.65 9.63 3.67C9.7 3.7 9.77 3.72 9.84 3.75C9.92 3.78 9.99 3.81 10.06 3.84C10.13 3.87 10.2 3.9 10.27 3.93C10.33 3.97 10.4 4 10.47 4.04C10.54 4.08 10.6 4.12 10.67 4.16C10.73 4.2 10.8 4.24 10.86 4.29C10.92 4.33 10.98 4.38 11.05 4.42C11.11 4.47 11.17 4.52 11.22 4.57C11.28 4.62 11.34 4.67 11.4 4.72C11.45 4.77 11.51 4.83 11.56 4.88C11.61 4.94 11.67 5 11.72 5.05C11.77 5.11 11.82 5.17 11.86 5.23C11.91 5.29 11.96 5.35 12 5.41C12.05 5.48 12.09 5.54 12.13 5.61C12.17 5.67 12.21 5.74 12.25 5.8C12.29 5.87 12.33 5.94 12.36 6C12.4 6.07 12.43 6.14 12.46 6.21C12.49 6.28 12.52 6.35 12.55 6.42C12.58 6.5 12.61 6.57 12.63 6.64C12.66 6.71 12.68 6.79 12.7 6.86C12.72 6.93 12.74 7.01 12.76 7.08C12.78 7.16 12.79 7.23 12.81 7.31C12.82 7.38 12.83 7.46 12.84 7.54C12.85 7.61 12.86 7.69 12.87 7.77C12.87 7.84 12.88 7.92 12.88 8L13.25 7.65C13.27 7.64 13.3 7.62 13.32 7.61C13.35 7.6 13.38 7.59 13.4 7.58C13.43 7.57 13.46 7.56 13.49 7.56C13.52 7.56 13.55 7.56 13.58 7.56C13.61 7.56 13.64 7.57 13.67 7.58C13.7 7.59 13.72 7.6 13.75 7.61C13.78 7.62 13.8 7.64 13.83 7.65C13.85 7.67 13.87 7.69 13.89 7.71C13.91 7.73 13.93 7.75 13.95 7.78C13.96 7.8 13.98 7.83 13.99 7.86C14 7.88 14.01 7.91 14.02 7.94C14.03 7.97 14.03 8 14.03 8.03C14.03 8.06 14.03 8.09 14.03 8.12C14.03 8.14 14.02 8.17 14.01 8.2C14 8.23 13.99 8.26 13.98 8.28C13.97 8.31 13.95 8.34 13.93 8.36Z" fill="#0A59F7" fill-opacity="1.000000" fill-rule="nonzero"/>
	</g>
</svg>
