<svg width="32.000000" height="32.000000" viewBox="0 0 32 32" fill="none" xmlns="http://www.w3.org/2000/svg" xmlns:xlink="http://www.w3.org/1999/xlink">
	<desc>
			Created with Pixso.
	</desc>
	<defs>
		<clipPath id="clip14_3327">
			<rect width="32.000000" height="32.000000" fill="white" fill-opacity="0"/>
		</clipPath>
	</defs>
	<g clip-path="url(#clip14_3327)">
		<path d="M13.73 21.16L26.6 8.29C26.64 8.24 26.69 8.2 26.75 8.16C26.8 8.13 26.86 8.1 26.92 8.07C26.98 8.05 27.04 8.03 27.11 8.01C27.17 8 27.24 7.99 27.3 7.99C27.37 7.99 27.43 8 27.5 8.01C27.56 8.03 27.62 8.05 27.68 8.07C27.75 8.1 27.8 8.13 27.86 8.16C27.91 8.2 27.96 8.24 28.01 8.29C28.06 8.33 28.1 8.38 28.13 8.44C28.17 8.49 28.2 8.55 28.23 8.61C28.25 8.67 28.27 8.74 28.28 8.8C28.3 8.86 28.3 8.93 28.3 9C28.3 9.06 28.3 9.13 28.28 9.19C28.27 9.25 28.25 9.32 28.23 9.38C28.2 9.44 28.17 9.5 28.13 9.55C28.1 9.61 28.06 9.66 28.01 9.7L14.43 23.28C14.39 23.32 14.34 23.37 14.28 23.4C14.23 23.44 14.17 23.47 14.11 23.5C14.05 23.52 13.99 23.54 13.92 23.55C13.86 23.56 13.79 23.57 13.73 23.57C13.66 23.57 13.6 23.56 13.53 23.55C13.47 23.54 13.4 23.52 13.34 23.5C13.28 23.47 13.23 23.44 13.17 23.4C13.12 23.37 13.07 23.32 13.02 23.28L3.97 14.23C3.92 14.18 3.88 14.13 3.84 14.08C3.81 14.02 3.78 13.96 3.75 13.9C3.73 13.84 3.71 13.78 3.69 13.71C3.68 13.65 3.67 13.59 3.67 13.52C3.67 13.45 3.68 13.39 3.69 13.32C3.71 13.26 3.73 13.2 3.75 13.14C3.78 13.08 3.81 13.02 3.84 12.96C3.88 12.91 3.92 12.86 3.97 12.81C4.01 12.77 4.06 12.72 4.12 12.69C4.17 12.65 4.23 12.62 4.29 12.6C4.35 12.57 4.42 12.55 4.48 12.54C4.54 12.53 4.61 12.52 4.67 12.52C4.74 12.52 4.81 12.53 4.87 12.54C4.93 12.55 5 12.57 5.06 12.6C5.12 12.62 5.18 12.65 5.23 12.69C5.29 12.72 5.34 12.77 5.38 12.81L13.73 21.16Z" fill="#000000" fill-opacity="0.400000" fill-rule="nonzero"/>
	</g>
</svg>
