<svg width="32.000000" height="32.000000" viewBox="0 0 32 32" fill="none" xmlns="http://www.w3.org/2000/svg" xmlns:xlink="http://www.w3.org/1999/xlink">
	<desc>
			Created with Pixso.
	</desc>
	<defs>
		<clipPath id="clip68_769">
			<rect width="32.000000" height="32.000000" fill="white" fill-opacity="0"/>
		</clipPath>
	</defs>
	<g clip-path="url(#clip68_769)">
		<path d="M23.84 26L8.3 26C7.04 26 6 24.87 6 23.48L6 7.68C6 6.3 7.04 5.17 8.3 5.17L17.59 5.17C18.05 5.17 18.43 5.56 18.43 6.04C18.43 6.51 18.05 6.9 17.59 6.9L8.3 6.9C7.97 6.9 7.67 7.25 7.67 7.68L7.67 23.44C7.67 23.87 7.97 24.22 8.3 24.22L23.84 24.22C24.18 24.22 24.47 23.87 24.47 23.44L24.47 14.71C24.47 14.24 24.85 13.85 25.31 13.85C25.77 13.85 26.15 14.24 26.15 14.71L26.15 23.48C26.15 24.87 25.1 26 23.84 26ZM13.55 20.79C13.09 20.79 12.71 20.4 12.71 19.92C12.71 12.28 18.76 6.04 26.15 6.04C26.61 6.04 26.99 6.43 26.99 6.9C26.99 7.38 26.61 7.77 26.15 7.77C19.68 7.77 14.39 13.24 14.39 19.92C14.39 20.4 14.02 20.79 13.55 20.79ZM23.21 13.02C23.09 13.02 22.92 12.98 22.79 12.89C22.37 12.63 22.25 12.11 22.5 11.72L25.02 7.21L20.65 4.6C20.23 4.34 20.1 3.82 20.36 3.43C20.61 3 21.11 2.87 21.49 3.13L26.57 6.17C26.99 6.43 27.12 6.95 26.87 7.34L23.93 12.59C23.8 12.89 23.51 13.02 23.21 13.02Z" fill="#000000" fill-opacity="0.400000" fill-rule="nonzero"/>
	</g>
</svg>
