<svg width="32.000000" height="32.000000" viewBox="0 0 32 32" fill="none" xmlns="http://www.w3.org/2000/svg" xmlns:xlink="http://www.w3.org/1999/xlink">
	<desc>
			Created with Pixso.
	</desc>
	<defs/>
	<ellipse cx="16.000000" cy="16.000000" rx="16.000000" ry="15.999999" fill="#000000" fill-opacity="0.200000"/>
	<path d="M16.53 7.46C19.75 7.46 22.37 10.11 22.37 13.37C22.37 14.75 21.9 16.05 21.06 17.09L21 17.16L21.09 17.22C21.34 17.4 21.58 17.59 21.82 17.79C22.05 18 22.27 18.22 22.47 18.45C22.68 18.68 22.87 18.93 23.05 19.18C23.23 19.43 23.39 19.7 23.54 19.97C23.69 20.24 23.82 20.52 23.94 20.81C24.05 21.1 24.15 21.4 24.23 21.7C24.32 22 24.38 22.3 24.43 22.61C24.48 22.92 24.51 23.22 24.52 23.54L24.53 23.7L24.53 23.86C24.53 23.91 24.53 23.95 24.52 23.99C24.51 24.04 24.5 24.08 24.48 24.12C24.46 24.16 24.45 24.2 24.42 24.23C24.4 24.27 24.37 24.3 24.34 24.33C24.31 24.36 24.28 24.39 24.24 24.42C24.21 24.44 24.17 24.46 24.13 24.48C24.09 24.49 24.05 24.51 24.01 24.52C23.97 24.52 23.92 24.53 23.88 24.53L16.53 24.53L9.18 24.53C9.13 24.53 9.09 24.52 9.05 24.52C9.01 24.51 8.97 24.49 8.93 24.48C8.89 24.46 8.85 24.44 8.82 24.42C8.78 24.39 8.75 24.37 8.72 24.34C8.69 24.31 8.66 24.27 8.64 24.24C8.61 24.2 8.59 24.16 8.58 24.12C8.56 24.08 8.55 24.04 8.54 24C8.53 23.96 8.53 23.92 8.53 23.87C8.53 21.17 9.84 18.71 11.97 17.22L12.05 17.16L11.99 17.09C11.79 16.84 11.61 16.58 11.46 16.29C11.3 16.02 11.16 15.72 11.05 15.42C10.94 15.12 10.86 14.81 10.8 14.49C10.74 14.18 10.7 13.86 10.69 13.53L10.69 13.37C10.69 10.11 13.3 7.46 16.53 7.46ZM15.45 13.37L14.15 13.37L14.15 13.47C14.15 13.54 14.16 13.62 14.17 13.7C14.18 13.78 14.2 13.85 14.21 13.93C14.23 14 14.25 14.08 14.28 14.15C14.3 14.23 14.33 14.3 14.36 14.37C14.39 14.44 14.43 14.51 14.47 14.58C14.51 14.64 14.55 14.71 14.59 14.77C14.64 14.84 14.69 14.9 14.74 14.96C14.79 15.02 14.84 15.07 14.9 15.13C14.95 15.18 15.01 15.23 15.07 15.28C15.13 15.32 15.2 15.37 15.26 15.41C15.33 15.45 15.39 15.49 15.46 15.53C15.53 15.56 15.6 15.59 15.67 15.62C15.74 15.65 15.82 15.67 15.89 15.69C15.97 15.71 16.04 15.73 16.12 15.74C16.19 15.76 16.27 15.77 16.35 15.77C16.42 15.78 16.5 15.78 16.58 15.78C16.65 15.78 16.73 15.77 16.81 15.76C16.88 15.76 16.96 15.74 17.03 15.73C17.11 15.71 17.18 15.69 17.26 15.67C17.33 15.64 17.4 15.61 17.47 15.58C17.54 15.55 17.61 15.52 17.68 15.48C17.75 15.44 17.81 15.4 17.88 15.36C17.94 15.31 18 15.27 18.06 15.22C18.12 15.17 18.17 15.11 18.23 15.06C18.28 15 18.33 14.94 18.38 14.88C18.43 14.82 18.48 14.76 18.52 14.69C18.56 14.63 18.6 14.56 18.63 14.49C18.67 14.42 18.7 14.35 18.73 14.28C18.76 14.21 18.79 14.14 18.81 14.06C18.83 13.99 18.85 13.91 18.86 13.83C18.88 13.76 18.89 13.68 18.9 13.6C18.9 13.53 18.91 13.45 18.91 13.37L17.61 13.37L17.61 13.44C17.6 13.51 17.59 13.58 17.57 13.65C17.56 13.72 17.53 13.78 17.5 13.85C17.47 13.91 17.44 13.97 17.39 14.03C17.35 14.08 17.31 14.13 17.26 14.18C17.2 14.23 17.15 14.27 17.09 14.31C17.03 14.34 16.97 14.37 16.9 14.4C16.84 14.42 16.77 14.44 16.7 14.45C16.63 14.46 16.56 14.47 16.49 14.47C16.42 14.46 16.35 14.45 16.29 14.44C16.22 14.42 16.15 14.4 16.09 14.37C16.03 14.34 15.97 14.31 15.91 14.27C15.85 14.23 15.8 14.18 15.75 14.13C15.7 14.08 15.66 14.03 15.62 13.97C15.58 13.91 15.55 13.85 15.53 13.78C15.5 13.72 15.48 13.65 15.47 13.58C15.45 13.51 15.45 13.44 15.45 13.37Z" fill="#FFFFFF" fill-opacity="1.000000" fill-rule="nonzero"/>
</svg>
